<?xml version="1.0" encoding="UTF-8"?><svg id="Layer_2" xmlns="http://www.w3.org/2000/svg" viewBox="0 0 2305.35 1267.22"><g id="Layer_1-2"><path d="m731.13,649c10.64,0,20.14,3.81,28.52,11.41,8.36,7.61,10.27,15.97,5.7,25.09-21.3,44.88-47.53,82.13-78.7,111.78-31.19,29.66-71.48,44.48-120.91,44.48h-6.84c-27.38,39.55-58.75,70.72-94.11,93.53s-70.91,34.22-106.64,34.22c-30.42,0-55.14-7.98-74.14-23.95-19.02-15.97-28.52-40.3-28.52-73,0-12.92.75-23.19,2.28-30.8v-4.56c0-5.31-1.14-9.31-3.42-11.97s-5.33-4-9.12-4c-9.12,0-15.59,6.84-19.39,20.53l-7.98,42.2c-14.45,70.72-27,126.41-37.64,167.11-10.66,40.67-24.34,75.27-41.06,103.8-16.72,28.5-36.5,42.77-59.31,42.77C26.61,1197.65-.01,1171.41-.01,1118.94c0-25.09,5.91-55.33,17.67-90.67,11.8-35.38,31.77-88.41,59.89-159.12l33.08-83.27,46.77-128.89,7.98-22.81c25.84-76.03,44.48-128.31,55.89-156.83s22.81-48.67,34.22-60.45,26.61-17.69,45.62-17.69c34.97,0,50.19,12.94,45.62,38.78-.77,5.33.19,9.52,2.84,12.55,2.66,3.05,6.66,4.56,11.98,4.56,7.59,0,14.83-3.42,21.67-10.27,18.25-17.48,36.3-29.45,54.17-35.92s37.08-9.7,57.61-9.7c45.62,0,81.92,15.59,108.92,46.77,27,31.19,40.5,73.39,40.5,126.61,0,46.39-7.23,93.16-21.67,140.3,34.97,0,65.39-18.62,91.25-55.89,3.03-5.31,8.73-7.98,17.11-7.98Zm-301.7,67.88c14.83-11.03,26.42-24.91,34.8-41.64,8.36-16.72,12.55-33.08,12.55-49.05,0-17.48-5.14-31.94-15.41-43.34s-26.05-17.11-47.33-17.11c-26.62,0-48.86,11.03-66.73,33.08-17.88,22.06-26.8,46.39-26.8,73,0,18.25,4.75,33.08,14.25,44.48s24.53,17.11,45.06,17.11c18.25,0,34.78-5.5,49.61-16.53Z" style="fill:#578c41; stroke-width:0px;"/><path d="m755.07,906.22c-33.47-42.2-50.19-95.25-50.19-159.13,0-54.75,12.16-109.11,36.5-163.11,24.33-53.98,59.31-98.28,104.94-132.88s98.09-51.91,157.41-51.91c50.19,0,88.2,13.69,114.06,41.06,25.84,27.38,38.78,61.59,38.78,102.66,0,28.14-7.8,55.89-23.39,83.27-15.59,27.38-37.27,49.81-65.02,67.3-27.75,17.5-59.5,26.23-95.23,26.23-38.03,0-67.69-6.08-88.97-18.25-3.05-1.52-5.33-2.28-6.84-2.28-3.81,0-6.84,1.34-9.12,4s-3.42,6.66-3.42,11.97c0,19.02,11.2,33.84,33.64,44.48,22.44,10.66,50.77,15.97,84.98,15.97,41.06,0,82.12-10.27,123.19-30.8,41.06-20.53,73.75-49.8,98.09-87.83,4.56-6.84,10.64-10.27,18.25-10.27,10.64,0,19.95,4.56,27.94,13.69s9.7,17.5,5.14,25.09c-50.19,93.53-105.14,164.25-164.83,212.16-59.69,47.91-122.61,71.86-188.77,71.86s-113.69-21.09-147.14-63.3Zm238.95-292c13.31-13.31,19.97-27.95,19.97-43.92,0-13.69-4.56-24.89-13.69-33.64s-22.06-13.12-38.78-13.12c-21.3,0-38.59,6.47-51.91,19.39-13.31,12.94-19.95,27.77-19.95,44.48,0,13.69,4.56,24.91,13.69,33.66s22.42,13.11,39.92,13.11c20.53,0,37.44-6.64,50.75-19.95Z" style="fill:#578c41; stroke-width:0px;"/><path d="m1778.2,649c10.64,0,20.14,3.81,28.52,11.41,8.36,7.61,10.27,15.97,5.7,25.09-21.3,44.88-47.53,82.13-78.7,111.78-31.19,29.66-71.48,44.48-120.91,44.48h-6.84c-27.38,39.55-58.75,70.72-94.11,93.53s-70.91,34.22-106.64,34.22c-30.42,0-55.14-7.98-74.14-23.95-19.02-15.97-28.52-40.3-28.52-73,0-12.92.75-23.19,2.28-30.8v-4.56c0-5.31-1.14-9.31-3.42-11.97s-5.33-4-9.12-4c-9.12,0-15.59,6.84-19.39,20.53l-7.98,42.2c-14.45,70.72-27,126.41-37.64,167.11-10.66,40.67-24.34,75.27-41.06,103.8-16.72,28.5-36.5,42.77-59.31,42.77-53.22,0-79.84-26.23-79.84-78.7,0-25.09,5.91-55.33,17.67-90.67,11.8-35.38,31.77-88.41,59.89-159.12l33.08-83.27,46.77-128.89,7.98-22.81c25.84-76.03,44.48-128.31,55.89-156.83s22.81-48.67,34.22-60.45,26.61-17.69,45.62-17.69c34.97,0,50.19,12.94,45.62,38.78-.77,5.33.19,9.52,2.84,12.55,2.66,3.05,6.66,4.56,11.98,4.56,7.59,0,14.83-3.42,21.67-10.27,18.25-17.48,36.3-29.45,54.17-35.92s37.08-9.7,57.61-9.7c45.62,0,81.92,15.59,108.92,46.77,27,31.19,40.5,73.39,40.5,126.61,0,46.39-7.23,93.16-21.67,140.3,34.97,0,65.39-18.62,91.25-55.89,3.03-5.31,8.73-7.98,17.11-7.98Zm-301.7,67.88c14.83-11.03,26.42-24.91,34.8-41.64,8.36-16.72,12.55-33.08,12.55-49.05,0-17.48-5.14-31.94-15.41-43.34s-26.05-17.11-47.33-17.11c-26.62,0-48.86,11.03-66.73,33.08-17.88,22.06-26.8,46.39-26.8,73,0,18.25,4.75,33.08,14.25,44.48s24.53,17.11,45.06,17.11c18.25,0,34.78-5.5,49.61-16.53Z" style="fill:#578c41; stroke-width:0px;"/><path d="m1802.15,906.22c-33.47-42.2-50.19-95.25-50.19-159.13,0-54.75,12.16-109.11,36.5-163.11,24.33-53.98,59.31-98.28,104.94-132.88s98.09-51.91,157.41-51.91c50.19,0,88.2,13.69,114.06,41.06,25.84,27.38,38.78,61.59,38.78,102.66,0,28.14-7.8,55.89-23.39,83.27s-37.27,49.81-65.02,67.3c-27.75,17.5-59.5,26.23-95.23,26.23-38.03,0-67.69-6.08-88.97-18.25-3.05-1.52-5.33-2.28-6.84-2.28-3.81,0-6.84,1.34-9.12,4s-3.42,6.66-3.42,11.97c0,19.02,11.2,33.84,33.64,44.48,22.44,10.66,50.77,15.97,84.98,15.97,41.06,0,82.12-10.27,123.19-30.8s73.75-49.8,98.09-87.83c4.56-6.84,10.64-10.27,18.25-10.27,10.64,0,19.95,4.56,27.94,13.69s9.7,17.5,5.14,25.09c-50.19,93.53-105.14,164.25-164.83,212.16s-122.61,71.86-188.77,71.86-113.69-21.09-147.14-63.3Zm238.95-292c13.31-13.31,19.97-27.95,19.97-43.92,0-13.69-4.56-24.89-13.69-33.64s-22.06-13.12-38.78-13.12c-21.3,0-38.59,6.47-51.91,19.39-13.31,12.94-19.95,27.77-19.95,44.48,0,13.69,4.56,24.91,13.69,33.66s22.42,13.11,39.92,13.11c20.53,0,37.44-6.64,50.75-19.95Z" style="fill:#578c41; stroke-width:0px;"/></g></svg>